<svg version="1.1" preserveAspectRatio="none" xmlns="http://www.w3.org/2000/svg" width="500" height="500" viewBox="0 0 500 500"><rect width="100%" height="100%" fill="#FFFFFF" fill-opacity="1"/><svg viewBox="68.7771 117.1508 362.446 224.8044" width="417" height="258.64110736495917" x="41.5px" y="120.6794px" xmlns="http://www.w3.org/2000/svg" xmlns:xlink="http://www.w3.org/1999/xlink" preserveAspectRatio="none"><defs></defs><style>.a-VpF9B9iXcolor {fill:#0C0C0C;fill-opacity:1;}.a-VpF9B9iXstrokeColor-str {stroke:#929292;stroke-opacity:1;}.companyName {fill:#0C0C0C;fill-opacity:1;}.icon3-str {stroke:#929292;stroke-opacity:1;}.text {fill:#0C0C0C;fill-opacity:1;}</style><g opacity="1" transform="rotate(0 237.6573 325.7552)">
<svg width="24.6856" height="16.2" x="237.6573" y="325.7552" version="1.1" preserveAspectRatio="none" viewBox="0.04 -28 42.96 28.2">
  <g transform="matrix(1 0 0 1 0 0)" class="text"><path id="id-6izo4zJp2" d="M25.36-28L14.16-9.68L14.16 0L11.24 0L11.24-9.68L0.04-28L3.20-28L12.80-12.28L22.40-28L25.36-28Z M34.32 0.20Q31.76 0.20 29.42-0.54Q27.08-1.28 25.76-2.40L25.76-2.40L27.04-4.64Q28.36-3.60 30.36-2.94Q32.36-2.28 34.52-2.28L34.52-2.28Q37.40-2.28 38.78-3.18Q40.16-4.08 40.16-5.72L40.16-5.72Q40.16-6.88 39.40-7.54Q38.64-8.20 37.48-8.54Q36.32-8.88 34.40-9.20L34.40-9.20Q31.84-9.68 30.28-10.18Q28.72-10.68 27.62-11.88Q26.52-13.08 26.52-15.20L26.52-15.20Q26.52-17.84 28.72-19.52Q30.92-21.20 34.84-21.20L34.84-21.20Q36.88-21.20 38.92-20.66Q40.96-20.12 42.28-19.24L42.28-19.24L41.04-16.96Q38.44-18.76 34.84-18.76L34.84-18.76Q32.12-18.76 30.74-17.80Q29.36-16.84 29.36-15.28L29.36-15.28Q29.36-14.08 30.14-13.36Q30.92-12.64 32.08-12.30Q33.24-11.96 35.28-11.60L35.28-11.60Q37.80-11.12 39.32-10.64Q40.84-10.16 41.92-9Q43-7.84 43-5.80L43-5.80Q43-3.04 40.70-1.42Q38.40 0.20 34.32 0.20L34.32 0.20Z"/></g>
</svg>
</g><g opacity="1" transform="rotate(0 68.7771 117.1508)">
<svg width="362.446" height="90" x="68.7771" y="117.1508" version="1.1" preserveAspectRatio="none" viewBox="1.68 -28.88 118.56 29.44">
  <g transform="matrix(1 0 0 1 0 0)" class="companyName"><path id="id-D6z1nYkh5" d="M22.16-5.12Q22.16-2.84 22.44 0L22.44 0Q19.72-0.12 13.28-0.12L13.28-0.12Q5.60-0.12 1.68 0L1.68 0L1.68-0.80Q3.12-0.88 3.78-1.12Q4.44-1.36 4.68-2.04Q4.92-2.72 4.92-4.24L4.92-4.24L4.92-24.08Q4.92-25.60 4.68-26.28Q4.44-26.96 3.78-27.20Q3.12-27.44 1.68-27.52L1.68-27.52L1.68-28.32Q5.60-28.20 13.28-28.20L13.28-28.20Q19.16-28.20 21.64-28.32L21.64-28.32Q21.36-25.68 21.36-23.60L21.36-23.60Q21.36-22.04 21.48-21.12L21.48-21.12L20.56-21.12Q20.28-23.72 19.84-24.98Q19.40-26.24 18.36-26.82Q17.32-27.40 15.20-27.40L15.20-27.40L11.88-27.40Q10.44-27.40 9.78-27.18Q9.12-26.96 8.88-26.28Q8.64-25.60 8.64-24.08L8.64-24.08L8.64-14.64L11.28-14.64Q12.68-14.64 13.44-15.30Q14.20-15.96 14.46-16.86Q14.72-17.76 14.88-19.12L14.88-19.12L15-19.92L15.92-19.92Q15.80-18.24 15.80-16.16L15.80-16.16L15.80-14.24Q15.80-12.20 16.04-8.56L16.04-8.56L15.12-8.56Q15.08-8.84 14.88-10.50Q14.68-12.16 13.78-13Q12.88-13.84 11.28-13.84L11.28-13.84L8.64-13.84L8.64-4.24Q8.64-2.72 8.88-2.04Q9.12-1.36 9.78-1.14Q10.44-0.92 11.88-0.92L11.88-0.92L14.80-0.92Q17.28-0.92 18.58-1.58Q19.88-2.24 20.48-3.70Q21.08-5.16 21.36-8L21.36-8L22.28-8Q22.16-6.92 22.16-5.12L22.16-5.12Z M48.04-28.32Q47.76-25.48 47.76-23.20L47.76-23.20Q47.76-21.20 47.88-19.92L47.88-19.92L46.96-19.92Q46.64-23 46.16-24.50Q45.68-26 44.48-26.70Q43.28-27.40 40.80-27.40L40.80-27.40L38.64-27.40L38.64-4.64Q38.64-2.96 38.96-2.20Q39.28-1.44 40.08-1.16Q40.88-0.88 42.68-0.80L42.68-0.80L42.68 0Q40.60-0.12 36.80-0.12L36.80-0.12Q32.80-0.12 30.88 0L30.88 0L30.88-0.80Q32.68-0.88 33.48-1.16Q34.28-1.44 34.60-2.20Q34.92-2.96 34.92-4.64L34.92-4.64L34.92-27.40L32.76-27.40Q30.28-27.40 29.08-26.70Q27.88-26 27.40-24.50Q26.92-23 26.60-19.92L26.60-19.92L25.68-19.92Q25.80-21.20 25.80-23.20L25.80-23.20Q25.80-25.48 25.52-28.32L25.52-28.32Q28.84-28.20 36.80-28.20L36.80-28.20Q44.72-28.20 48.04-28.32L48.04-28.32Z M77.80-27.52Q76.36-27.44 75.70-27.20Q75.04-26.96 74.80-26.28Q74.56-25.60 74.56-24.08L74.56-24.08L74.56-4.24Q74.56-2.72 74.80-2.04Q75.04-1.36 75.70-1.12Q76.36-0.88 77.80-0.80L77.80-0.80L77.80 0Q76.12-0.12 72.68-0.12L72.68-0.12Q69.44-0.12 67.60 0L67.60 0L67.60-0.80Q69.04-0.88 69.70-1.12Q70.36-1.36 70.60-2.04Q70.84-2.72 70.84-4.24L70.84-4.24L70.84-13.84L57.84-13.84L57.84-4.24Q57.84-2.72 58.08-2.04Q58.32-1.36 58.98-1.12Q59.64-0.88 61.08-0.80L61.08-0.80L61.08 0Q59.24-0.12 56-0.12L56-0.12Q52.56-0.12 50.88 0L50.88 0L50.88-0.80Q52.32-0.88 52.98-1.12Q53.64-1.36 53.88-2.04Q54.12-2.72 54.12-4.24L54.12-4.24L54.12-24.08Q54.12-25.60 53.88-26.28Q53.64-26.96 52.98-27.20Q52.32-27.44 50.88-27.52L50.88-27.52L50.88-28.32Q52.56-28.20 56-28.20L56-28.20Q59.20-28.20 61.08-28.32L61.08-28.32L61.08-27.52Q59.64-27.44 58.98-27.20Q58.32-26.96 58.08-26.28Q57.84-25.60 57.84-24.08L57.84-24.08L57.84-14.64L70.84-14.64L70.84-24.08Q70.84-25.60 70.60-26.28Q70.36-26.96 69.70-27.20Q69.04-27.44 67.60-27.52L67.60-27.52L67.60-28.32Q69.44-28.20 72.68-28.20L72.68-28.20Q76.12-28.20 77.80-28.32L77.80-28.32L77.80-27.52Z M91.36-28.32L91.36-27.52Q89.92-27.44 89.26-27.20Q88.60-26.96 88.36-26.28Q88.12-25.60 88.12-24.08L88.12-24.08L88.12-4.24Q88.12-2.72 88.36-2.04Q88.60-1.36 89.26-1.12Q89.92-0.88 91.36-0.80L91.36-0.80L91.36 0Q89.52-0.12 86.28-0.12L86.28-0.12Q82.84-0.12 81.16 0L81.16 0L81.16-0.80Q82.60-0.88 83.26-1.12Q83.92-1.36 84.16-2.04Q84.40-2.72 84.40-4.24L84.40-4.24L84.40-24.08Q84.40-25.60 84.16-26.28Q83.92-26.96 83.26-27.20Q82.60-27.44 81.16-27.52L81.16-27.52L81.16-28.32Q82.84-28.20 86.28-28.20L86.28-28.20Q89.48-28.20 91.36-28.32L91.36-28.32Z M107.56-28.88Q111.36-28.88 114.22-27.16Q117.08-25.44 118.66-22.18Q120.24-18.92 120.24-14.40L120.24-14.40Q120.24-10 118.62-6.60Q117.00-3.20 114.10-1.32Q111.20 0.56 107.52 0.56L107.52 0.56Q103.72 0.56 100.86-1.16Q98.00-2.88 96.42-6.14Q94.84-9.40 94.84-13.92L94.84-13.92Q94.84-18.32 96.46-21.72Q98.08-25.12 100.98-27Q103.88-28.88 107.56-28.88L107.56-28.88ZM107.40-28.16Q104.84-28.16 102.90-26.38Q100.96-24.60 99.90-21.40Q98.84-18.20 98.84-14.08L98.84-14.08Q98.84-9.92 100.02-6.76Q101.20-3.60 103.20-1.88Q105.20-0.16 107.68-0.16L107.68-0.16Q110.24-0.16 112.18-1.94Q114.12-3.72 115.18-6.92Q116.24-10.12 116.24-14.24L116.24-14.24Q116.24-18.40 115.06-21.56Q113.88-24.72 111.88-26.44Q109.88-28.16 107.40-28.16L107.40-28.16Z"/></g>
</svg>
</g><g opacity="1" transform="rotate(-16 168.6784 205.3343)">
<svg width="143.7168" height="88.8633" x="168.6784" y="205.3343" version="1.1" preserveAspectRatio="none" viewBox="-1.64 -30.44 52.4 32.4">
  <g transform="matrix(1 0 0 1 0 0)" class="a-VpF9B9iXcolor"><path id="id--VpF9B9iX4" d="M10.72-23.76L10.72-23.76L1.84-24.20Q1.76-24.20 1.48-23.96Q1.20-23.72 1-23.72Q0.80-23.72 0.72-23.76L0.72-23.76Q-1.64-24.60-1.64-25.80L-1.64-25.80Q-1.64-26.40-0.96-26.40L-0.96-26.40Q-0.56-26.40 4.22-25.78Q9-25.16 14.52-25.16Q20.04-25.16 25.12-25.76L25.12-25.76Q30.52-30.44 35.84-30.44L35.84-30.44Q38.04-30.44 38.04-29.40L38.04-29.40Q38.04-26.68 25.72-24.88L25.72-24.88Q21.64-20.80 15.84-11.56L15.84-11.56Q13.68-8.16 11.56-5L11.56-5Q6.88 1.96 3.92 1.96L3.92 1.96Q2.84 1.96 2.84 1.02Q2.84 0.08 3.64-1.16L3.64-1.16Q4.40-2.36 4.84-2.36L4.84-2.36Q4.88-2.36 4.88-2.36L4.88-2.36Q5.40-2.36 5.40-1.76L5.40-1.76L5.24-1Q5.24-0.80 5.40-0.80L5.40-0.80Q7.52-0.80 12.60-9.44L12.60-9.44Q14.64-12.92 17.80-17.36Q20.96-21.80 23.92-24.64L23.92-24.64Q17-23.76 10.72-23.76ZM34.88-29.68L34.88-29.68Q31.04-29.68 26.92-26L26.92-26Q29.88-26.44 32.02-27.08Q34.16-27.72 35.04-28.28Q35.92-28.84 35.92-29.26Q35.92-29.68 34.88-29.68Z M23.44-3.44L23.44-3.44Q25.68-3.44 28.80-5.96L28.80-5.96L29.48-5.76Q25.56-2.48 22.72-2.48L22.72-2.48Q22.40-2.48 22.24-2.52L22.24-2.52Q21.16-1.20 19.88-0.38Q18.60 0.44 17.64 0.44L17.64 0.44Q16.12 0.44 16.12-1.26Q16.12-2.96 18.96-5.80L18.96-5.80Q18.48-6.96 18.48-8.24Q18.48-9.52 19.40-10.32Q20.32-11.12 21.54-11.12Q22.76-11.12 23.60-10.32Q24.44-9.52 24.44-8.04L24.44-8.04Q24.44-5.76 22.96-3.48L22.96-3.48Q23.12-3.44 23.44-3.44ZM22.16-3.84L22.16-3.84Q23.40-5.92 23.40-7.38Q23.40-8.84 22.68-9.54Q21.96-10.24 21.28-10.24L21.28-10.24Q19.88-10.24 19.88-8.80Q19.88-7.36 20.52-5.94Q21.16-4.52 22.16-3.84ZM17.76-1.48L17.76-1.48Q17.76-0.68 18.80-0.68Q19.84-0.68 21.44-2.80L21.44-2.80Q20.36-3.36 19.52-4.76L19.52-4.76Q17.76-2.84 17.76-1.48Z M30.40-0.52L30.40-0.52Q30.40-1.12 30.98-2.08Q31.56-3.04 31.60-3.20Q31.64-3.36 31.52-3.36Q31.40-3.36 31.18-3.14Q30.96-2.92 28.74-1.46Q26.52 0 25.68 0L25.68 0Q25.12 0 25.12-0.72Q25.12-1.44 27.36-4.44Q29.60-7.44 30.52-7.44L30.52-7.44Q30.72-7.44 30.90-7.26Q31.08-7.08 31.08-6.98Q31.08-6.88 29.02-4.52Q26.96-2.16 26.96-1.48L26.96-1.48Q26.96-1.32 27.12-1.32L27.12-1.32Q27.88-1.32 30.40-3.36Q32.92-5.40 33.98-6.52Q35.04-7.64 35.64-7.64Q36.24-7.64 36.24-7.12L36.24-7.12Q36.24-6.80 36-6.48Q35.76-6.16 35.10-5.34Q34.44-4.52 33.88-3.80L33.88-3.80Q32.32-1.80 32.32-1.30Q32.32-0.80 32.74-0.80Q33.16-0.80 34.80-1.92L34.80-1.92Q37.84-3.92 40.36-5.96L40.36-5.96L41.24-6.68Q41.52-6.88 41.72-6.88Q41.92-6.88 41.92-6.64L41.92-6.64L41.92-6.52Q42.08-6.52 39.78-4.76Q37.48-3 34.86-1.24Q32.24 0.52 31.56 0.52L31.56 0.52Q30.40 0.52 30.40-0.52Z M49.16-5.96L50-6.64Q50.28-6.84 50.52-6.84Q50.76-6.84 50.76-6.56L50.76-6.56L50.76-6.48Q47.76-4.08 44.84-1.98Q41.92 0.12 40.56 0.12L40.56 0.12Q39.56 0.12 39.56-0.96Q39.56-2.04 40.52-3.12Q41.48-4.20 42.42-5Q43.36-5.80 43.36-6.06Q43.36-6.32 43.06-6.66Q42.76-7 42.56-7.12L42.56-7.12Q41.88-6.44 39.60-4.64L39.60-4.64L39.44-5.24Q41.96-7.24 42.36-7.92L42.36-7.92L42.36-8.28Q42.36-9.28 42.56-9.64Q42.76-10 43.52-10.64Q44.28-11.28 44.56-11.28Q44.84-11.28 45.06-11.08Q45.28-10.88 45.28-10.68Q45.28-10.48 45.14-10.22Q45-9.96 44.86-9.78Q44.72-9.60 44.48-9.34Q44.24-9.08 44.18-8.98Q44.12-8.88 44.06-8.64Q44-8.40 43.80-8.24Q43.60-8.08 43.60-7.84Q43.60-7.60 43.92-6.78Q44.24-5.96 44.24-5.58Q44.24-5.20 42.76-3.78Q41.28-2.36 41.28-1.48L41.28-1.48Q41.28-1 41.72-1L41.72-1Q42.28-1 43.80-2L43.80-2L44.28-2.32Q46.88-4.12 49.16-5.96L49.16-5.96Z"/></g>
</svg>
</g></svg></svg>